<?xml version="1.0" encoding="utf-8"?>
<!-- Generator: Adobe Illustrator 24.1.2, SVG Export Plug-In . SVG Version: 6.00 Build 0)  -->
<svg version="1.1" id="Layer_1" xmlns="http://www.w3.org/2000/svg" xmlns:xlink="http://www.w3.org/1999/xlink" x="0px" y="0px"
	 viewBox="0 0 1500 1500" style="enable-background:new 0 0 1500 1500;" xml:space="preserve">
<style type="text/css">
	.st0{fill:#0096FF;stroke:#256D85;stroke-width:0.75;stroke-miterlimit:10;}
	.st1{fill:#00D7FF;stroke:#256D85;stroke-width:0.75;stroke-miterlimit:10;}
</style>
<g>
	<path class="st0" d="M529.38,428.25l0,642.63l464.45,0c27.61,0,50,22.39,50,50v89.52l-606.58,0c-27.61,0-50-22.39-50-50l0-820.78
		c0-27.61,22.39-50,50-50l606.58,0v88.64c0,27.61-22.39,50-50,50L529.38,428.25z"/>
	<path class="st1" d="M1112.75,535.8l0,419.68c0,27.61-22.39,50-50,50l-470.56,0l0-80.79c0-27.61,22.39-50,50-50l345,0l0-258.09
		l-345,0c-27.61,0-50-22.39-50-50V485.8l470.56,0C1090.37,485.8,1112.75,508.18,1112.75,535.8z"/>
	<path class="st0" d="M821.72,816.67h-72.51c-15.7,0-28.43-12.73-28.43-28.43v-72.51c0-15.7,12.73-28.43,28.43-28.43l72.51,0
		c15.7,0,28.43,12.73,28.43,28.43v72.51C850.15,803.94,837.42,816.67,821.72,816.67z"/>
</g>
</svg>
